<svg
    viewBox="0 0 1920 1080"
    xmlns="http://www.w3.org/2000/svg"
    width="100%"
    height="100%"
>
<rect width="1920" height="1080" fill="#61a35b"/>
<path d="M 0,1080 C 0,1080 0,180 0,180 C 140.02820512820512,172.26153846153846 280.05641025641023,164.5230769230769 374,180 C 467.94358974358977,195.4769230769231 515.8025641025641,234.1692307692308 611,242 C 706.1974358974359,249.8307692307692 848.7333333333336,226.79999999999995 953,202 C 1057.2666666666664,177.20000000000005 1123.2641025641026,150.63076923076926 1228,148 C 1332.7358974358974,145.36923076923074 1476.2102564102565,166.67692307692306 1598,176 C 1719.7897435897435,185.32307692307694 1819.8948717948717,182.66153846153847 1920,180 C 1920,180 1920,1080 1920,1080 Z" fill="#ffffff" opacity="0.09999999999999999"/>
<path d="M 0,1080 C 0,1080 0,360 0,360 C 109.62820512820514,335.36153846153843 219.25641025641028,310.7230769230769 314,304 C 408.7435897435897,297.2769230769231 488.6025641025641,308.4692307692308 605,325 C 721.3974358974359,341.5307692307692 874.3333333333333,363.4 979,361 C 1083.6666666666667,358.6 1140.0641025641025,331.9307692307693 1227,317 C 1313.9358974358975,302.0692307692307 1431.4102564102564,298.8769230769231 1552,308 C 1672.5897435897436,317.1230769230769 1796.2948717948718,338.5615384615385 1920,360 C 1920,360 1920,1080 1920,1080 Z" fill="#ffffff" opacity="0.19999999999999998"/>
<path d="M 0,1080 C 0,1080 0,540 0,540 C 100.95128205128205,537.623076923077 201.9025641025641,535.2461538461539 297,514 C 392.0974358974359,492.75384615384615 481.3410256410257,452.6384615384616 605,473 C 728.6589743589743,493.3615384615384 886.7333333333333,574.1999999999999 1016,585 C 1145.2666666666667,595.8000000000001 1245.725641025641,536.5615384615385 1325,522 C 1404.274358974359,507.4384615384615 1462.3641025641025,537.5538461538462 1558,548 C 1653.6358974358975,558.4461538461538 1786.8179487179486,549.2230769230769 1920,540 C 1920,540 1920,1080 1920,1080 Z" fill="#ffffff" opacity="0.3"/>
<path d="M 0,1080 C 0,1080 0,720 0,720 C 75.21282051282051,736.9025641025642 150.42564102564103,753.8051282051282 269,757 C 387.574358974359,760.1948717948718 549.5102564102565,749.6820512820514 674,738 C 798.4897435897435,726.3179487179486 885.5333333333333,713.4666666666666 967,717 C 1048.4666666666667,720.5333333333334 1124.3564102564105,740.4512820512822 1241,741 C 1357.6435897435895,741.5487179487178 1515.0410256410255,722.7282051282051 1635,716 C 1754.9589743589745,709.2717948717949 1837.4794871794873,714.6358974358975 1920,720 C 1920,720 1920,1080 1920,1080 Z" fill="#ffffff" opacity="0.39999999999999997"/>
<path d="M 0,1080 C 0,1080 0,900 0,900 C 90.53076923076924,905.6641025641024 181.06153846153848,911.328205128205 303,918 C 424.9384615384615,924.671794871795 578.2846153846154,932.3512820512822 676,935 C 773.7153846153846,937.6487179487178 815.7999999999998,935.2666666666665 907,916 C 998.2000000000002,896.7333333333335 1138.5153846153848,860.5820512820513 1250,857 C 1361.4846153846152,853.4179487179487 1444.1384615384616,882.4051282051282 1551,895 C 1657.8615384615384,907.5948717948718 1788.9307692307693,903.7974358974359 1920,900 C 1920,900 1920,1080 1920,1080 Z" fill="#ffffff" opacity="0.49999999999999994"/>
</svg>